<svg viewBox="0 0 256 256" xmlns="http://www.w3.org/2000/svg"><path fill="none" d="M0 0h256v256H0z"></path><path fill="none" stroke="#ffffff" stroke-linecap="round" stroke-linejoin="round" stroke-width="16" d="M96 96h64M96 128h64M96 160h32M156.7 216H48a8 8 0 0 1-8-8V48a8 8 0 0 1 8-8h160a8 8 0 0 1 8 8v108.7a7.9 7.9 0 0 1-2.3 5.6l-51.4 51.4a7.9 7.9 0 0 1-5.6 2.3Z" class="stroke-000000"></path><path fill="none" stroke="#ffffff" stroke-linecap="round" stroke-linejoin="round" stroke-width="16" d="M215.3 160H160v55.3" class="stroke-000000"></path></svg>